Coordinates
version=1
nRows=16
nColumns=33
inDegrees=yes

Units are S.I. units (second, meters, Newtons, ...)
Angles are in degrees.

endheader
time	ground_thorax_rot_x	ground_thorax_rot_y	ground_thorax_rot_z	ground_thorax_tx	ground_thorax_ty	ground_thorax_tz	clav_prot_r	clav_elev_r	scapula_abduction_r	scapula_elevation_r	scapula_upward_rot_r	scapula_winging_r	shoulder_elv_r	plane_of_elev_r	axial_rot_r	elbow_flexion_r	pro_sup_r	wrist_flex_r	wrist_dev_r	clav_prot_l	clav_elev_l	scapula_abduction_l	scapula_elevation_l	scapula_upward_rot_l	scapula_winging_l	shoulder_elv_l	plane_of_elev_l	axial_rot_l	elbow_flexion_l	pro_sup_l	wrist_flex_l	wrist_dev_l
      3.03000000	     -2.37783843	      4.76445235	     13.25000749	     -0.11605106	      1.02646320	      0.01402066	      8.75551578	    -14.68471614	     14.07554904	     -5.95513940	     -3.00587519	     -0.26564744	    -25.90284341	    -70.45446954	    106.77288106	    -45.49975060	   -155.64263416	     22.63609572	     -2.44022491	     14.27285644	     -3.68664134	    -20.09741708	    -17.85235536	    -34.83536972	      2.46627798	     55.47626903	    -23.62963392	      9.17344974	     37.24036970	     16.61199152	     15.23851699	    -24.99999983
      3.04000000	     -2.32225126	      4.61745199	     13.35057395	     -0.11621832	      1.02617018	      0.01429026	      8.66421031	    -14.48780485	     13.76904277	     -5.62010358	     -3.36675705	     -0.23884989	    -26.63725159	    -70.92694219	    106.60785918	    -45.83567003	   -154.85058565	     23.29918576	     -2.61098244	     14.13506787	     -3.38172309	    -19.90561779	    -18.32588745	    -35.20922750	      2.29642789	     55.18091817	    -24.49422843	      8.88183047	     37.79074456	     16.90577014	     14.84156508	    -24.99999983
      3.05000000	     -2.27800156	      4.64293590	     13.12757761	     -0.11587376	      1.02698721	      0.01452875	      8.45148345	    -14.80255670	     13.34467275	     -5.85880673	     -3.51512239	      0.08292737	    -28.10255862	    -71.20424564	    104.37802514	    -45.51730239	   -151.20766600	     25.44303833	     -3.68812331	     13.77070579	     -3.24813073	    -19.20457324	    -18.32357126	    -34.88594558	      2.00550035	     55.00931686	    -25.68665707	      7.95429658	     38.28705774	     18.23311394	     12.62290302	    -24.99999983
      3.06000000	     -2.13600310	      4.52418113	     13.13022789	     -0.11591378	      1.02711044	      0.01456710	      8.31840186	    -14.52017830	     13.07764738	     -5.55073778	     -3.62473622	      0.05089532	    -28.50220351	    -71.54489929	    104.34545122	    -45.48481358	   -151.01502119	     25.49514673	     -3.69887249	     13.63659133	     -2.97567035	    -19.02591531	    -18.79177661	    -35.30882324	      1.83272399	     54.60086704	    -26.25122959	      8.00306378	     38.79553878	     18.21634009	     12.54044503	    -24.99999983
      3.07000000	     -2.06278220	      4.38436376	     13.17309500	     -0.11596377	      1.02688401	      0.01477258	      8.19944542	    -14.18509976	     12.79475269	     -5.15479406	     -3.82352501	      0.00622430	    -29.09174394	    -71.91488327	    104.34064341	    -45.89466915	   -150.66913882	     25.83094816	     -3.79640438	     13.52212870	     -2.64443743	    -18.87848516	    -19.30784248	    -35.71650181	      1.66908836	     54.27061160	    -26.98647669	      7.90090116	     39.51988999	     18.23721009	     12.31667422	    -24.99999983
      3.08000000	     -1.88091945	      4.29539650	     13.18378697	     -0.11605610	      1.02690561	      0.01487024	      8.10025160	    -13.92712043	     12.53134790	     -4.81612523	     -4.05422445	     -0.01029321	    -29.54157370	    -72.31262875	    104.14095895	    -46.15468073	   -150.26093036	     26.23912607	     -3.98351116	     13.40484597	     -2.37745588	    -18.72475002	    -19.74752058	    -36.09065776	      1.51088693	     53.89771409	    -27.63151152	      7.65553797	     40.24021060	     18.29908492	     11.99662856	    -24.99999983
      3.09000000	     -1.84779890	      4.17596599	     13.23741848	     -0.11606320	      1.02680069	      0.01509017	      7.98820367	    -13.64921592	     12.22988591	     -4.44167431	     -4.32509412	     -0.01434913	    -30.17259249	    -72.64817402	    103.96699720	    -46.66580203	   -149.70661143	     26.88563659	     -4.26200692	     13.28699948	     -2.07792130	    -18.56261462	    -20.20013842	    -36.42353930	      1.34611913	     53.64168511	    -28.46855916	      7.42444348	     41.04646453	     18.39320687	     11.49924052	    -24.99999983
      3.10000000	     -1.79188994	      4.05654232	     13.35566767	     -0.11615731	      1.02679288	      0.01534106	      7.88541702	    -13.48005456	     11.93382162	     -4.15470072	     -4.62714287	      0.03186261	    -31.05389475	    -73.11577228	    103.48184184	    -47.14492264	   -148.67998102	     27.98374677	     -4.84245803	     13.15858061	     -1.79496316	    -18.36270509	    -20.59297154	    -36.66066572	      1.17780918	     53.39498523	    -29.46646494	      6.89733105	     41.92322247	     18.64735270	     10.51281795	    -24.99999983
      3.11000000	     -1.75174841	      4.14519475	     13.02920456	     -0.11570252	      1.02830978	      0.01558792	      7.63666456	    -13.91120462	     11.59826275	     -4.65949173	     -4.41329773	      0.34852327	    -33.40391028	    -73.28457149	    100.26967336	    -46.62883713	   -144.68037278	     31.04177192	     -7.21773867	     12.76406021	     -1.76892675	    -17.51894227	    -20.30064431	    -35.92962671	      0.91388778	     53.28598767	    -30.81305812	      5.51708289	     42.35075078	     19.86996650	      6.42202937	    -24.99999983
      3.12000000	     -1.69564142	      4.01145629	     12.92954865	     -0.11574046	      1.02819121	      0.01566151	      7.54346125	    -13.54792746	     11.46905437	     -4.35123867	     -4.34191156	      0.22937555	    -34.10101564	    -73.61833420	    100.26283812	    -47.17065873	   -144.41382375	     31.20685119	     -7.26309043	     12.67800984	     -1.37305779	    -17.39318050	    -20.83042731	    -36.22814999	      0.75816266	     52.97266221	    -31.35172917	      5.50133748	     43.30724117	     19.85860978	      6.23652659	    -24.99999983
      3.13000000	     -1.52065521	      3.88671273	     12.76437462	     -0.11575278	      1.02867347	      0.01594186	      7.79420490	    -13.38964007	     12.20774626	     -4.52021318	     -3.58912576	     -0.14411293	    -38.05301643	    -73.60620560	     96.37636821	    -47.27342924	   -141.17306654	     32.73351934	     -9.13121109	     12.37314052	     -1.23786090	    -16.77470616	    -20.82512469	    -35.89448677	      0.51934079	     52.73103246	    -32.46369119	      4.54591158	     44.11720740	     21.06657689	      3.36074702	    -24.99999983
      3.14000000	     -1.39645894	      3.78587148	     12.86080152	     -0.11573883	      1.02863010	      0.01609834	      7.70056178	    -12.96158047	     11.99579159	     -4.07157791	     -3.70648909	     -0.25354095	    -38.61900764	    -73.91407715	     96.32602797	    -47.81075146	   -141.03862493	     33.00011761	     -9.16431947	     12.27032435	     -0.91859387	    -16.62870366	    -21.30486846	    -36.23660067	      0.34866847	     52.43591100	    -32.99358483	      4.52723690	     44.92425770	     21.05205052	      3.29888190	    -24.99999983
      3.15000000	     -1.25539256	      3.71823913	     12.87758190	     -0.11584166	      1.02861350	      0.01619289	      7.66227467	    -12.62880302	     11.85401382	     -3.68837354	     -3.87645865	     -0.33494157	    -39.17580076	    -74.22956836	     96.18922764	    -48.41425479	   -140.80101624	     33.51365257	     -9.37611508	     12.19852236	     -0.65433775	    -16.53362266	    -21.70285507	    -36.52139079	      0.21845700	     52.18892127	    -33.50172205	      4.29694683	     45.81232194	     21.14429003	      3.09999921	    -24.99999983
      3.16000000	     -1.02392391	      3.71324864	     12.87959868	     -0.11581452	      1.02926548	      0.01645888	      7.75256391	    -12.60209495	     11.98179560	     -3.63482800	     -3.93572559	     -0.39093060	    -41.19363788	    -74.34204404	     93.84203702	    -48.48046099	   -138.99520138	     36.19285914	    -11.27584523	     11.93655799	     -0.70704615	    -16.06746249	    -21.67201609	    -36.52139120	      0.01309108	     52.26123554	    -34.36198572	      3.44325516	     46.50806835	     22.44706600	      1.30139491	    -24.99999983
      3.17000000	     -0.97862614	      3.64424101	     12.73613200	     -0.11588612	      1.02939982	      0.01633676	      7.69005767	    -12.36215131	     11.90004971	     -3.44292153	     -3.86686188	     -0.46430332	    -41.71313843	    -74.62935241	     93.93321165	    -48.90100681	   -138.81575703	     36.42964168	    -11.33383400	     11.86970784	     -0.39912330	    -15.95738992	    -22.06761504	    -36.71186683	     -0.11720648	     52.02838190	    -34.70209323	      3.43867702	     47.47537342	     22.46264829	      1.13325235	    -24.99999983
      3.18000000	     -0.75073398	      3.62999685	     12.80875415	     -0.11569374	      1.02960695	      0.01673114	      7.72173142	    -11.99460147	     12.08721085	     -3.24690580	     -3.52772270	     -0.70176419	    -44.21498451	    -74.65789135	     91.54947344	    -49.16207776	   -136.86438964	     38.61881896	    -13.10829696	     11.59444137	     -0.23970910	    -15.39875924	    -22.13234441	    -36.47619470	     -0.34481340	     51.98206057	    -35.43490871	      2.53020155	     47.95923750	     24.00299498	     -0.58841984	    -24.99999983
